# xmcd
#
# Track frame offsets:
#	150
#	14713
#	42207
#	58799
#	72022
#	83373
#	104089
#	124526
#	136936
#	154996
#	174502
#	193432
#	198358
#	225971
#	246679
#	261099
#	276052
#	286304
#	300932
#	314212
#	325613
#	333830
#	345664
#
# Disc length: 4716
#
# Revision: 1
# Processed by: cddbd v1.5.1PL0 Copyright (c) Steve Scherf et al.
# Submitted via: CDex 1.40Beta9
# Normalized: r0:TRMNUM
#
DISCID=50126a17
DTITLE=past'a - past'a Übungs-CD
DYEAR=2002
DGENRE=Blues
TTITLE0=Eric Clapton_Signe
TTITLE1=Billy Joel - New York State of mind
TTITLE2=Sade - Someone to love
TTITLE3=Wiglaf Droste and Das Spardosen-terzett_Sag Warum
TTITLE4=Sister
TTITLE5=Oleta Adams - Get here
TTITLE6=Hellen Merrill - Summertime
TTITLE7=Sarah  Vaughan - What a difference a day makes
TTITLE8=Rio Reiser - Junimond(1)
TTITLE9=Teresa de Sio - Pianoforte e voce
TTITLE10=Miriam Makeba - I shall sing
TTITLE11=Carole King - Natural Woman
TTITLE12=James Brown - Georgia on My Mind
TTITLE13=Eric Clapton_Tears in heaven
TTITLE14=Diana Krall - As time goes by
TTITLE15=Astrud Gilberto - One Note Samba
TTITLE16=Manfred Krug_Das Lied mit einem Ton (One Note Samba)
TTITLE17=Nat ''King'' Cole and Ella Fitzgerald - Stormy Weather(1)
TTITLE18=Jimi Hendrix - Up From The Skies =
TTITLE19=Eiszeit
TTITLE20=Kinderlieder-Augsburger Puppenkiste - Das Lummerlandlied (Ein
TTITLE21=Beatles - When I'm 64(1)(1)
TTITLE22=Das Dschungelbuch - Probiers mal mit Gemütlichkeit
EXTD=YEAR: 2002 ID3G: 0
EXTT0=
EXTT1=
EXTT2=
EXTT3=
EXTT4=
EXTT5=
EXTT6=
EXTT7=
EXTT8=
EXTT9=
EXTT10=
EXTT11=
EXTT12=
EXTT13=
EXTT14=
EXTT15=
EXTT16=
EXTT17=
EXTT18=
EXTT19=
EXTT20=
EXTT21=
EXTT22=
PLAYORDER=
